<svg width="43" height="43" viewBox="0 0 43 43" fill="none" xmlns="http://www.w3.org/2000/svg">
<path d="M21.5 28.6666C25.458 28.6666 28.6666 25.458 28.6666 21.4999C28.6666 17.5419 25.458 14.3333 21.5 14.3333C17.5419 14.3333 14.3333 17.5419 14.3333 21.4999C14.3333 25.458 17.5419 28.6666 21.5 28.6666Z" stroke="white" stroke-width="2" stroke-linecap="round" stroke-linejoin="round"/>
<path d="M34.2232 14.0218L35.0891 13.5216L35.0891 13.5216L34.2232 14.0218ZM34.341 14.2258L33.4751 14.726L33.4751 14.726L34.341 14.2258ZM35.7019 15.5648L36.188 14.6909L36.188 14.6909L35.7019 15.5648ZM38.481 17.1109L37.9948 17.9848L37.9948 17.9848L38.481 17.1109ZM39.4016 18.6725L38.4016 18.6748L38.4016 18.6748L39.4016 18.6725ZM39.4145 24.3195L38.4145 24.3218L38.4145 24.3218L39.4145 24.3195ZM38.4913 25.8907L38.0065 25.016L38.0065 25.016L38.4913 25.8907ZM35.7054 27.4345L36.1901 28.3092L36.1901 28.3092L35.7054 27.4345ZM34.3395 28.7764L33.4735 28.2762L33.4735 28.2762L34.3395 28.7764ZM34.2232 28.9777L35.0891 29.4779L35.0891 29.4779L34.2232 28.9777ZM33.7432 30.8303L32.7434 30.8471L32.7434 30.8471L33.7432 30.8303ZM33.7969 34.0211L32.7971 34.0379L32.7971 34.0379L33.7969 34.0211ZM32.9049 35.6008L32.4029 34.736L32.4029 34.736L32.9049 35.6008ZM28.0172 38.4376L28.5192 39.3025L28.5192 39.3025L28.0172 38.4376ZM26.1957 38.4241L26.7104 37.5667L26.7104 37.5667L26.1957 38.4241ZM23.4615 36.7826L22.9468 37.64L22.9468 37.64L23.4615 36.7826ZM19.5403 36.7805L20.054 37.6384L20.054 37.6384L19.5403 36.7805ZM16.8186 38.4102L16.3049 37.5522L16.3049 37.5522L16.8186 38.4102ZM15.0036 38.4253L15.5029 37.5589L15.5029 37.5589L15.0036 38.4253ZM10.1005 35.5999L10.5998 34.7335L10.5998 34.7335L10.1005 35.5999ZM9.20362 34.0173L10.2035 34.0342L10.2035 34.0342L9.20362 34.0173ZM9.25725 30.8404L8.25739 30.8236L8.25739 30.8236L9.25725 30.8404ZM8.78434 28.9999L9.65222 28.5031L9.65222 28.5031L8.78434 28.9999ZM8.65977 28.7822L7.79189 29.279L7.79189 29.279L8.65977 28.7822ZM7.29189 27.4309L6.80574 28.3048L6.80574 28.3048L7.29189 27.4309ZM4.51942 25.8886L4.03328 26.7625L4.03328 26.7625L4.51942 25.8886ZM3.59877 24.327L2.59877 24.3292L3.59877 24.327ZM3.58594 18.68L4.58594 18.6777L3.58594 18.68ZM4.50916 17.1088L4.99387 17.9834L4.99387 17.9834L4.50916 17.1088ZM7.29499 15.5649L6.81028 14.6903L6.81028 14.6903L7.29499 15.5649ZM8.66096 14.2231L7.79504 13.7229L7.79504 13.7229L8.66096 14.2231ZM8.77721 14.0218L9.64313 14.522L9.64313 14.522L8.77721 14.0218ZM9.25718 12.1692L10.257 12.1523L10.257 12.1523L9.25718 12.1692ZM9.2035 8.97836L8.20364 8.99519L8.20364 8.99519L9.2035 8.97836ZM10.0955 7.39864L10.5975 8.26352L10.5975 8.26352L10.0955 7.39864ZM14.9832 4.56191L15.4852 5.42679L15.4852 5.42679L14.9832 4.56191ZM16.8047 4.57539L16.29 5.43275L16.29 5.43275L16.8047 4.57539ZM19.5389 6.21686L19.0242 7.07422L19.0242 7.07422L19.5389 6.21686ZM23.4601 6.21899L22.9464 5.36104L22.9464 5.36104L23.4601 6.21899ZM26.1818 4.58932L25.6681 3.73136L25.6681 3.73136L26.1818 4.58932ZM27.9968 4.57413L28.4961 3.70769L28.4961 3.70769L27.9968 4.57413ZM32.9 7.39959L33.3993 6.53316L33.3993 6.53316L32.9 7.39959ZM33.7969 8.9821L32.797 8.96528L32.797 8.96528L33.7969 8.9821ZM33.7432 12.1692L32.7434 12.1523L32.7434 12.1523L33.7432 12.1692ZM33.3573 14.522L33.4751 14.726L35.2069 13.7256L35.0891 13.5216L33.3573 14.522ZM35.2157 16.4387L37.9948 17.9848L38.9671 16.237L36.188 14.6909L35.2157 16.4387ZM38.4016 18.6748L38.4145 24.3218L40.4145 24.3173L40.4016 18.6702L38.4016 18.6748ZM38.0065 25.016L35.2207 26.5599L36.1901 28.3092L38.976 26.7654L38.0065 25.016ZM33.4735 28.2762L33.3573 28.4775L35.0891 29.4779L35.2054 29.2766L33.4735 28.2762ZM32.7434 30.8471L32.7971 34.0379L34.7968 34.0043L34.7431 30.8135L32.7434 30.8471ZM32.4029 34.736L27.5153 37.5727L28.5192 39.3025L33.4068 36.4657L32.4029 34.736ZM26.7104 37.5667L23.9762 35.9253L22.9468 37.64L25.681 39.2815L26.7104 37.5667ZM21.6171 35.2715H21.3811V37.2715H21.6171V35.2715ZM19.0266 35.9225L16.3049 37.5522L17.3323 39.2681L20.054 37.6384L19.0266 35.9225ZM15.5029 37.5589L10.5998 34.7335L9.60119 36.4664L14.5043 39.2918L15.5029 37.5589ZM10.2035 34.0342L10.2571 30.8573L8.25739 30.8236L8.20376 34.0004L10.2035 34.0342ZM9.65222 28.5031L9.52766 28.2855L7.79189 29.279L7.91646 29.4966L9.65222 28.5031ZM7.77803 26.5571L5.00557 25.0147L4.03328 26.7625L6.80574 28.3048L7.77803 26.5571ZM4.59877 24.3247L4.58594 18.6777L2.58594 18.6822L2.59877 24.3292L4.59877 24.3247ZM4.99387 17.9834L7.77971 16.4396L6.81028 14.6903L4.02444 16.2341L4.99387 17.9834ZM9.52687 14.7233L9.64313 14.522L7.9113 13.5216L7.79504 13.7229L9.52687 14.7233ZM10.257 12.1523L10.2034 8.96154L8.20364 8.99519L8.25732 12.186L10.257 12.1523ZM10.5975 8.26352L15.4852 5.42679L14.4812 3.69702L9.59358 6.53375L10.5975 8.26352ZM16.29 5.43275L19.0242 7.07422L20.0537 5.3595L17.3195 3.71802L16.29 5.43275ZM21.3833 7.72798H21.6193V5.72798H21.3833V7.72798ZM23.9739 7.07695L26.6956 5.44728L25.6681 3.73136L22.9464 5.36104L23.9739 7.07695ZM27.4975 5.44056L32.4007 8.26603L33.3993 6.53316L28.4961 3.70769L27.4975 5.44056ZM32.797 8.96528L32.7434 12.1523L34.7431 12.186L34.7967 8.99892L32.797 8.96528ZM32.4007 8.26603C32.6501 8.40974 32.8018 8.67749 32.797 8.96528L34.7967 8.99893C34.8138 7.98408 34.2787 7.03993 33.3993 6.53316L32.4007 8.26603ZM26.6956 5.44728C26.9419 5.29978 27.2488 5.29722 27.4975 5.44056L28.4961 3.70769C27.6189 3.2022 26.5367 3.21125 25.6681 3.73136L26.6956 5.44728ZM21.6193 7.72798C22.4486 7.72798 23.2624 7.50298 23.9739 7.07695L22.9464 5.36104C22.5454 5.60116 22.0867 5.72798 21.6193 5.72798V7.72798ZM19.0242 7.07422C19.7368 7.502 20.5522 7.72798 21.3833 7.72798V5.72798C20.9149 5.72798 20.4553 5.60061 20.0537 5.3595L19.0242 7.07422ZM15.4852 5.42679C15.7345 5.28206 16.0428 5.28435 16.29 5.43275L17.3195 3.71802C16.4478 3.19472 15.3605 3.18667 14.4812 3.69702L15.4852 5.42679ZM10.2034 8.96154C10.1985 8.67463 10.3493 8.40756 10.5975 8.26352L9.59358 6.53375C8.71841 7.04169 8.18661 7.98344 8.20364 8.99519L10.2034 8.96154ZM9.64313 14.522C10.0588 13.8024 10.271 12.9833 10.257 12.1523L8.25732 12.186C8.2652 12.6543 8.1456 13.116 7.9113 13.5216L9.64313 14.522ZM7.77971 16.4396C8.50701 16.0366 9.11096 15.4433 9.52687 14.7232L7.79504 13.7229C7.56062 14.1287 7.22021 14.4631 6.81028 14.6903L7.77971 16.4396ZM4.58594 18.6777C4.58528 18.3892 4.74157 18.1233 4.99387 17.9834L4.02444 16.2341C3.13475 16.7271 2.58363 17.6651 2.58594 18.6822L4.58594 18.6777ZM5.00557 25.0147C4.75502 24.8753 4.59942 24.6114 4.59877 24.3247L2.59877 24.3292C2.60107 25.3402 3.14979 26.271 4.03328 26.7625L5.00557 25.0147ZM9.52766 28.2855C9.1128 27.5607 8.50781 26.963 7.77803 26.5571L6.80574 28.3048C7.21707 28.5336 7.55807 28.8705 7.79189 29.279L9.52766 28.2855ZM10.2571 30.8573C10.271 30.0324 10.0621 29.2191 9.65222 28.5031L7.91646 29.4966C8.14746 29.9002 8.26524 30.3586 8.25739 30.8236L10.2571 30.8573ZM10.5998 34.7335C10.3504 34.5898 10.1986 34.322 10.2035 34.0342L8.20376 34.0004C8.18663 35.0153 8.72172 35.9596 9.60119 36.4664L10.5998 34.7335ZM16.3049 37.5522C16.0585 37.6997 15.7517 37.7023 15.5029 37.5589L14.5043 39.2918C15.3815 39.7973 16.4637 39.7882 17.3323 39.2681L16.3049 37.5522ZM21.3811 35.2715C20.5518 35.2715 19.7381 35.4965 19.0266 35.9225L20.054 37.6384C20.455 37.3983 20.9137 37.2715 21.3811 37.2715V35.2715ZM23.9762 35.9253C23.2636 35.4975 22.4482 35.2715 21.6171 35.2715V37.2715C22.0855 37.2715 22.5451 37.3989 22.9468 37.64L23.9762 35.9253ZM27.5153 37.5727C27.2659 37.7174 26.9576 37.7151 26.7104 37.5667L25.681 39.2815C26.5526 39.8048 27.6399 39.8128 28.5192 39.3025L27.5153 37.5727ZM32.7971 34.0379C32.8019 34.3248 32.6511 34.5919 32.4029 34.736L33.4068 36.4657C34.282 35.9578 34.8138 35.016 34.7968 34.0043L32.7971 34.0379ZM33.3573 28.4775C32.9416 29.1971 32.7294 30.0162 32.7434 30.8471L34.7431 30.8135C34.7352 30.3451 34.8548 29.8835 35.0891 29.4779L33.3573 28.4775ZM35.2207 26.5599C34.4934 26.9629 33.8895 27.5562 33.4735 28.2762L35.2054 29.2766C35.4398 28.8708 35.7802 28.5364 36.1901 28.3092L35.2207 26.5599ZM38.4145 24.3218C38.4151 24.6102 38.2588 24.8762 38.0065 25.016L38.976 26.7654C39.8657 26.2723 40.4168 25.3344 40.4145 24.3173L38.4145 24.3218ZM37.9948 17.9848C38.2454 18.1241 38.401 18.3881 38.4016 18.6748L40.4016 18.6702C40.3993 17.6592 39.8506 16.7285 38.9671 16.237L37.9948 17.9848ZM33.4751 14.726C33.8898 15.4438 34.4913 16.0357 35.2157 16.4387L36.188 14.6909C35.7797 14.4638 35.4407 14.1302 35.2069 13.7256L33.4751 14.726ZM35.0891 13.5216C34.8548 13.116 34.7352 12.6543 34.7431 12.186L32.7434 12.1523C32.7294 12.9833 32.9416 13.8024 33.3573 14.522L35.0891 13.5216Z" fill="white"/>
</svg>
