<svg width="72" height="72" viewBox="0 0 72 72" fill="none" xmlns="http://www.w3.org/2000/svg">
<g filter="url(#filter0_d_110_13)">
<circle cx="36" cy="32" r="32" fill="#E6243C"/>
<path d="M21.1708 26.9269C21.6781 27.4342 21.8342 28.1561 21.6586 28.839C20.9353 31.6514 21.0029 34.6089 21.8537 37.3854C23.5708 43.0634 28.5659 47.3366 34.4196 48.2147C45.1903 49.7951 54.3025 40.2927 52.0391 29.4439C50.7708 23.3366 45.7366 18.4976 39.6098 17.4244C37.3671 17.0256 35.065 17.1121 32.8586 17.6781C32.1757 17.8537 31.4342 17.6781 30.9464 17.1903C29.8537 16.0976 30.4001 14.2829 31.8635 13.8927C34.7318 13.1512 37.8342 13.0342 41.0342 13.7171C48.8001 15.3951 54.8684 21.8732 56.0586 29.7171C58.0879 43.0049 46.6537 54.2634 33.3464 52C25.522 50.6537 19.1806 44.4683 17.6586 36.683C17.0537 33.5805 17.1903 30.5951 17.8927 27.8439C18.283 26.3805 20.0976 25.8537 21.1708 26.9269ZM27.0245 20.0976C27.0245 21.7171 25.7171 23.0244 24.0976 23.0244C22.4781 23.0244 21.1708 21.7171 21.1708 20.0976C21.1708 18.4781 22.4781 17.1708 24.0976 17.1708C25.7171 17.1708 27.0245 18.4781 27.0245 20.0976ZM36.7806 21.0732C30.322 21.0732 25.0732 26.322 25.0732 32.7805C25.0732 39.239 30.322 44.4878 36.7806 44.4878C43.2391 44.4878 48.4879 39.239 48.4879 32.7805C48.4879 26.322 43.2391 21.0732 36.7806 21.0732ZM32.8781 38.6342C31.8049 38.6342 30.9269 37.7561 30.9269 36.683V28.8781C30.9269 27.8049 31.8049 26.9269 32.8781 26.9269C33.9513 26.9269 34.8293 27.8049 34.8293 28.8781V36.683C34.8293 37.7561 33.9513 38.6342 32.8781 38.6342ZM40.683 38.6342C39.6098 38.6342 38.7318 37.7561 38.7318 36.683V28.8781C38.7318 27.8049 39.6098 26.9269 40.683 26.9269C41.7562 26.9269 42.6342 27.8049 42.6342 28.8781V36.683C42.6342 37.7561 41.7562 38.6342 40.683 38.6342Z" fill="white"/>
</g>
<defs>
<filter id="filter0_d_110_13" x="0" y="0" width="72" height="72" filterUnits="userSpaceOnUse" color-interpolation-filters="sRGB">
<feFlood flood-opacity="0" result="BackgroundImageFix"/>
<feColorMatrix in="SourceAlpha" type="matrix" values="0 0 0 0 0 0 0 0 0 0 0 0 0 0 0 0 0 0 127 0" result="hardAlpha"/>
<feOffset dy="4"/>
<feGaussianBlur stdDeviation="2"/>
<feComposite in2="hardAlpha" operator="out"/>
<feColorMatrix type="matrix" values="0 0 0 0 0 0 0 0 0 0 0 0 0 0 0 0 0 0 0.25 0"/>
<feBlend mode="normal" in2="BackgroundImageFix" result="effect1_dropShadow_110_13"/>
<feBlend mode="normal" in="SourceGraphic" in2="effect1_dropShadow_110_13" result="shape"/>
</filter>
</defs>
</svg>
