<svg width="72" height="72" viewBox="0 0 72 72" fill="none" xmlns="http://www.w3.org/2000/svg">
<g filter="url(#filter0_d_110_16)">
<circle cx="36" cy="32" r="32" fill="#E6243C"/>
<path d="M31.3118 24.1373V39.8852C31.3118 40.8076 32.3571 41.3475 33.091 40.7851L43.4772 32.9111C44.0777 32.4612 44.0777 31.5613 43.4772 31.1113L33.091 23.2374C32.9258 23.112 32.7294 23.0357 32.5237 23.0169C32.318 22.9982 32.1112 23.0377 31.9265 23.1312C31.7418 23.2246 31.5865 23.3682 31.4779 23.5459C31.3693 23.7236 31.3118 23.9284 31.3118 24.1373ZM33.5358 12.2813C33.5358 10.8415 32.2237 9.73912 30.8448 10.0541C28.3539 10.639 25.9964 11.6289 23.9058 12.9787C22.7271 13.7436 22.5492 15.4534 23.55 16.4657C24.2617 17.1857 25.3959 17.3656 26.2411 16.8257C27.9536 15.7233 29.844 14.9134 31.8901 14.4635C32.8686 14.2385 33.5358 13.3162 33.5358 12.2813ZM20.4141 19.6603C19.3911 18.648 17.7231 18.8054 16.9669 20.0203C15.6325 22.135 14.6539 24.5197 14.0757 27.0394C13.7643 28.4342 14.8319 29.7615 16.2552 29.7615C17.256 29.7615 18.1901 29.0866 18.3903 28.0967C18.8351 26.0495 19.658 24.1148 20.7255 22.405C21.3037 21.5276 21.1258 20.3802 20.4141 19.6603ZM16.2552 34.2609C14.8319 34.2609 13.7421 35.5883 14.0535 36.9831C14.6317 39.5028 15.6103 41.865 16.9447 44.0022C17.7008 45.217 19.3911 45.3745 20.3919 44.3621C21.1036 43.6422 21.2815 42.4949 20.7255 41.64C19.6357 39.9302 18.8351 38.018 18.3903 35.9482C18.1901 34.9359 17.2783 34.2609 16.2552 34.2609ZM23.9058 51.0213C26.0187 52.3711 28.3539 53.361 30.8448 53.9459C32.2237 54.2608 33.5358 53.1585 33.5358 51.7412C33.5358 50.7288 32.8686 49.7839 31.8901 49.5815C29.8938 49.1284 27.9901 48.3292 26.2633 47.2193C25.8416 46.9593 25.3446 46.8532 24.855 46.9187C24.3654 46.9842 23.9127 47.2173 23.5722 47.5792C23.3322 47.8084 23.1472 48.0901 23.0314 48.4027C22.9157 48.7154 22.8722 49.0507 22.9044 49.383C22.9366 49.7153 23.0436 50.0357 23.2172 50.3197C23.3908 50.6037 23.6264 50.8437 23.9058 51.0213ZM58 32.0112C58 42.6524 50.6608 51.6062 40.8084 53.9234C39.4295 54.2608 38.0951 53.1585 38.0951 51.7187C38.0951 50.6838 38.7845 49.7839 39.7631 49.5365C47.6583 47.6917 53.552 40.5376 53.552 32.0112C53.552 23.4848 47.6583 16.3308 39.7631 14.486C38.7845 14.261 38.0951 13.3387 38.0951 12.3038C38.0951 10.864 39.4295 9.76162 40.8084 10.0991C50.6608 12.4163 58 21.3701 58 32.0112Z" fill="white"/>
</g>
<defs>
<filter id="filter0_d_110_16" x="0" y="0" width="72" height="72" filterUnits="userSpaceOnUse" color-interpolation-filters="sRGB">
<feFlood flood-opacity="0" result="BackgroundImageFix"/>
<feColorMatrix in="SourceAlpha" type="matrix" values="0 0 0 0 0 0 0 0 0 0 0 0 0 0 0 0 0 0 127 0" result="hardAlpha"/>
<feOffset dy="4"/>
<feGaussianBlur stdDeviation="2"/>
<feComposite in2="hardAlpha" operator="out"/>
<feColorMatrix type="matrix" values="0 0 0 0 0 0 0 0 0 0 0 0 0 0 0 0 0 0 0.25 0"/>
<feBlend mode="normal" in2="BackgroundImageFix" result="effect1_dropShadow_110_16"/>
<feBlend mode="normal" in="SourceGraphic" in2="effect1_dropShadow_110_16" result="shape"/>
</filter>
</defs>
</svg>
